<svg xmlns="http://www.w3.org/2000/svg" viewBox="0 0 500 500"><defs><style>.cls-1{fill:#fff;}</style></defs><g id="Capa_2" data-name="Capa 2"><g id="Capa_1-2" data-name="Capa 1"><path class="cls-1" d="M264.92,393.79c-8.08-11.32-16.18-22.87-22.32-35.28-9.71-19.61-24.53-27.86-46.15-27.46-36.69.67-73.41.18-110.12.18H75.68c16.6,26.07,31.43,50.37,47.34,73.94,8.22,12.18,21,18.54,35.81,18.67,46.6.42,93.21.42,139.81.54,1,0,2-.43,5.75-1.29C285.91,417.69,274.28,406.91,264.92,393.79Z"/><path class="cls-1" d="M414.2,0H85.8A85.8,85.8,0,0,0,0,85.8V414.2A85.8,85.8,0,0,0,85.8,500H414.2A85.8,85.8,0,0,0,500,414.2V85.8A85.8,85.8,0,0,0,414.2,0ZM326.37,446.76c-53.62.58-107.26,0-160.89.15-29.6.07-51.8-12-67-37.84-12.25-20.81-26.28-40.44-38.9-61-4.73-7.71-8.1-16.82-4-25.49,6.62-13.85,18.64-13.53,32.2-13.56,41.27-.08,82.57.08,123.83,1A49.54,49.54,0,0,1,244.68,323c7.95,7.41,9.38,20.19,18.56,26.36,7.36,5,17.83,3.73,26.27,3.95,11.16.29,22.36.08,33.51-.41,15.28-.67,26.57-11.27,28-25.05,1.3-12.47-6.94-25.21-19.31-28.86-4.37-1.29-9.19-1.45-13.8-1.47-30-.12-60.05.06-90.07-.09-56.41-.28-106.49-38.89-119.59-92C89.43,129,144.36,55.9,224,53.8c14.43-.38,29.13-.61,43.67-.73Q278.58,53,289.5,53t21.84,0l21.85.1,21.84.13,21.85.13c7.17,0,14.34.06,21.51.08,2.33,0,4.65,0,7,0,1.1,0,2.23,0,3.32.08s1.9.33,2.85.47c5.24,51.25-31.79,92.92-82.62,93.39-33.23.31-66.46-.1-99.69.13-19.66.13-32.31,15.57-28.55,34.17,2.49,12.35,15.1,21.6,30.1,21.66,31.48.12,63-.07,94.44.06,58.18.24,109.43,43.61,119.27,100.79C457.16,377.82,401.05,446,326.37,446.76Z"/></g></g></svg>