<svg xmlns="http://www.w3.org/2000/svg" viewBox="0 0 1644.38 464.29"><defs><style>.cls-1{fill:#fff;}</style></defs><g id="Capa_2" data-name="Capa 2"><g id="Capa_1-2" data-name="Capa 1"><path class="cls-1" d="M420.6,1.19c6.16,60.24-37.37,109.23-97.12,109.78-39.06.36-78.12-.12-117.18.15-23.11.15-38,18.31-33.57,40.17,2.94,14.51,17.75,25.39,35.39,25.46,37,.14,74-.08,111,.07,68.39.28,128.64,51.27,140.21,118.48,14.9,86.57-51,166.66-138.84,167.61-63,.68-126.08,0-189.13.17-34.8.08-60.89-14.08-78.78-44.48-14.4-24.46-30.9-47.54-45.73-71.68-5.57-9.07-9.53-19.78-4.67-30C10,300.67,24.1,301,40,301c48.51-.09,97.07.09,145.57,1.14,14.42.31,28.25,5.34,38.86,15.23,9.34,8.71,11,23.73,21.81,31,8.66,5.82,21,4.38,30.89,4.63,13.12.35,26.28.1,39.39-.47,18-.79,31.24-13.26,32.92-29.46,1.53-14.65-8.15-29.63-22.69-33.92-5.14-1.52-10.8-1.71-16.23-1.73-35.29-.14-70.58.07-105.87-.1C138.37,287,79.51,241.6,64.1,179.13,42,89.38,106.54,3.44,200.15,1,217.1.52,234.4.26,251.48.12Q264.32,0,277.15,0t25.68,0q12.84,0,25.68.11L354.19.3l25.68.14c8.43,0,16.86.08,25.29.09,2.73,0,5.46,0,8.19,0,1.29,0,2.62,0,3.9.09C418.37.75,419.48,1,420.6,1.19ZM25.8,327.1c19.51,30.64,37,59.21,55.66,86.92,9.66,14.31,24.65,21.79,42.09,21.94,54.78.49,109.57.49,164.35.64,1.18,0,2.36-.51,6.76-1.52-21.72-6.35-35.39-19-46.39-34.44-9.5-13.31-19-26.88-26.25-41.47-11.41-23.06-28.84-32.76-54.25-32.29-43.13.8-86.29.22-129.44.22Z"/><path class="cls-1" d="M607.42,292.36l50.67-60.86q12.39-14.94,33.52-14.94h36.07V430.84q0,31.71-36.07,31.7t-36.08-31.7V330.26l-48.11,56.48-48.08-56.11V430.84q0,31.71-36.1,31.7H487.17v-246h36.07q20.79.18,33.17,14.94Z"/><path class="cls-1" d="M820.23,419.18l-6.92,18.58Q804,462.54,782.8,462.54t-30.45-13q-9.2-13-9.17-23.41a48.7,48.7,0,0,1,4.54-20.41l86.19-189.13h23.31q23.32,0,34.44,24.78L967.1,405.69a48.46,48.46,0,0,1,4.73,20.6c0,6.91-3,14.7-8.93,23.31s-16.12,12.94-30.51,12.94-24.7-8.26-30.88-24.78l-6.92-18.58Zm52.84-58.31-15.66-42.64-15.66,42.64Z"/><path class="cls-1" d="M1138.55,358l32.8,44.82q13.32,15.86,12.75,28.7t-13,23q-12.45,10.2-26.31,9.74t-28.26-17l-57-78v61.59q0,31.71-36.09,31.7H987.33v-246H1105q30.24,0,50.28,23.23t20,49.83Q1175.36,337.2,1138.55,358Zm-79.06-91.84v56.13h20.76q30.62,0,30.6-28.07t-30.6-28.06Z"/><path class="cls-1" d="M1333.16,274.51V431.2q0,31.71-36.07,31.71H1261V274.51h-36.44q-29.16,0-29.15-29v-29H1370q29.16,0,29.15,29t-29.15,29Z"/><path class="cls-1" d="M1528.14,294.92l40.45-53.21q17.69-23.33,39.35-23.33T1637,230.14c4.94,7.83,7.38,14.88,7.38,21.13s-2.17,13.76-6.55,22.51l-74.33,96.93v60.13q0,31.71-36.1,31.7h-36.07V370.71l-72.88-96.93q-6.57-13.12-6.55-22.51t7.36-21.13q7.4-11.76,29.08-11.76t39.35,23.33Z"/></g></g></svg>