<svg xmlns="http://www.w3.org/2000/svg" viewBox="0 0 500 500"><defs><style>.cls-1{fill:#fff;}</style></defs><g id="Capa_2" data-name="Capa 2"><g id="Capa_1-2" data-name="Capa 1"><path class="cls-1" d="M455.74,1.28c6.68,65-40.49,117.91-105.23,118.5-42.32.39-84.65-.13-127,.16-25,.17-41.16,19.76-36.37,43.36,3.17,15.66,19.23,27.41,38.34,27.48,40.09.15,80.19-.09,120.28.08,74.11.3,139.39,55.34,151.92,127.88,16.15,93.45-55.31,179.9-150.43,180.92-68.3.74-136.62,0-204.93.19-37.71.09-66-15.2-85.37-48-15.6-26.41-33.47-51.32-49.54-77.38-6-9.79-10.33-21.35-5.06-32.34,8.43-17.57,23.73-17.18,41-17.21,52.57-.09,105.18.1,157.74,1.23,15.62.33,30.61,5.76,42.11,16.44,10.12,9.4,12,25.61,23.63,33.45,9.38,6.29,22.71,4.72,33.47,5,14.21.37,28.48.11,42.68-.51,19.46-.86,33.85-14.31,35.67-31.8,1.66-15.82-8.83-32-24.59-36.62-5.57-1.63-11.7-1.83-17.58-1.86-38.24-.15-76.48.07-114.72-.11-71.86-.35-135.64-49.34-152.33-116.77-24-96.89,46-189.64,147.41-192.31C235.24.56,254,.28,272.49.13Q286.41,0,300.31,0t27.82,0q13.92,0,27.83.12l27.83.17,27.82.16c9.13,0,18.27.08,27.4.1,3,0,5.92,0,8.88,0,1.4,0,2.83,0,4.22.11C453.33.81,454.53,1.11,455.74,1.28ZM28,353.07C49.1,386.15,68,417,88.26,446.89c10.48,15.45,26.71,23.52,45.61,23.69,59.36.53,118.73.53,178.09.69,1.27,0,2.55-.55,7.32-1.64-23.54-6.86-38.35-20.54-50.27-37.18-10.29-14.37-20.62-29-28.44-44.77-12.36-24.88-31.24-35.35-58.78-34.84-46.74.85-93.5.23-140.26.23Z"/></g></g></svg>